<?xml version="1.0" encoding="UTF-8" standalone="no"?>
<svg width="36px" height="20px" viewBox="0 0 36 20" version="1.1" xmlns="http://www.w3.org/2000/svg" xmlns:xlink="http://www.w3.org/1999/xlink">
    <!-- Generator: Sketch 49 (51002) - http://www.bohemiancoding.com/sketch -->
    <title>A+E_Networks_stack_Small_2017_BK_FIN</title>
    <desc>Created with Sketch.</desc>
    <defs></defs>
    <g id="Page-1" stroke="none" stroke-width="1" fill="none" fill-rule="evenodd">
        <g id="A+E_Networks_stack_Small_2017_BK_FIN">
            <g id="Group-4" fill="#FFFFFF">
                <path d="M4.58,9.327 L8.377,9.327 L7.091,5.265 C6.85,4.516 6.508,3.095 6.508,3.095 L6.468,3.095 C6.468,3.095 6.107,4.516 5.865,5.265 L4.58,9.327 Z M5.002,0.414 L8.015,0.414 L13.077,14.513 L10.044,14.513 L9.08,11.516 L3.896,11.516 L2.953,14.513 L0,14.513 L5.002,0.414 Z" id="Fill-1"></path>
                <polyline id="Fill-3" points="25.374 0.413 25.374 14.514 36 14.514 36 12.127 28.287 12.127 28.287 8.561 34.996 8.561 34.996 6.214 28.287 6.214 28.287 2.82 35.997 2.82 35.997 0.413 25.374 0.413"></polyline>
            </g>
            <polyline id="Fill-5" fill="#FFFFFF" points="13.713 7.29 18.14 7.29 18.14 2.839 18.461 2.839 18.461 7.29 22.908 7.29 22.908 7.584 18.461 7.584 18.461 12.076 18.14 12.076 18.14 7.584 13.713 7.584 13.713 7.29"></polyline>
            <polygon id="Stroke-6" stroke="#FFFFFF" stroke-width="0.25" points="13.713 7.29 18.14 7.29 18.14 2.839 18.461 2.839 18.461 7.29 22.908 7.29 22.908 7.584 18.461 7.584 18.461 12.076 18.14 12.076 18.14 7.584 13.713 7.584"></polygon>
            <path d="M8.204,19.449 C8.162,19.374 8.071,19.216 7.979,19.079 L6.827,17.321 L6.822,17.313 L6.54,17.313 L6.54,19.851 L6.798,19.851 L6.798,17.723 C6.845,17.801 6.95,17.975 7.037,18.106 L8.186,19.844 L8.19,19.851 L8.462,19.851 L8.462,17.313 L8.204,17.313 L8.204,19.449" id="Fill-7" fill="#FFFFFF"></path>
            <path d="M8.204,19.449 C8.162,19.374 8.071,19.216 7.979,19.079 L6.827,17.321 L6.822,17.313 L6.54,17.313 L6.54,19.851 L6.798,19.851 L6.798,17.723 C6.845,17.801 6.95,17.975 7.037,18.106 L8.186,19.844 L8.19,19.851 L8.462,19.851 L8.462,17.313 L8.204,17.313 L8.204,19.449 Z" id="Stroke-8" stroke="#FFFFFF" stroke-width="0.2"></path>
            <polyline id="Fill-10" fill="#FFFFFF" points="9.685 17.313 9.685 19.851 11.458 19.851 11.458 19.6 9.953 19.6 9.953 18.657 11.298 18.657 11.298 18.42 9.953 18.42 9.953 17.554 11.42 17.554 11.42 17.313 9.685 17.313"></polyline>
            <polygon id="Stroke-11" stroke="#FFFFFF" stroke-width="0.2" points="9.685 17.313 9.685 19.851 11.458 19.851 11.458 19.6 9.953 19.6 9.953 18.657 11.298 18.657 11.298 18.42 9.953 18.42 9.953 17.554 11.42 17.554 11.42 17.313"></polygon>
            <polyline id="Fill-13" fill="#FFFFFF" points="12.324 17.313 12.324 17.557 13.171 17.557 13.171 19.851 13.439 19.851 13.439 17.557 14.284 17.557 14.284 17.313 12.324 17.313"></polyline>
            <polygon id="Stroke-14" stroke="#FFFFFF" stroke-width="0.2" points="12.324 17.313 12.324 17.557 13.171 17.557 13.171 19.851 13.439 19.851 13.439 17.557 14.284 17.557 14.284 17.313"></polygon>
            <path d="M17.51,19.014 C17.476,19.15 17.43,19.354 17.408,19.452 C17.385,19.355 17.338,19.155 17.305,19.024 L16.846,17.326 L16.843,17.313 L16.564,17.313 L16.103,19.028 C16.067,19.158 16.02,19.355 15.997,19.451 C15.975,19.353 15.929,19.15 15.893,19.014 L15.459,17.326 L15.456,17.313 L15.179,17.313 L15.85,19.839 L15.854,19.851 L16.128,19.851 L16.622,18.014 C16.651,17.903 16.685,17.75 16.704,17.667 C16.722,17.751 16.757,17.905 16.788,18.014 L17.265,19.838 L17.268,19.851 L17.532,19.851 L18.215,17.335 L18.221,17.313 L17.951,17.313 L17.51,19.014" id="Fill-16" fill="#FFFFFF"></path>
            <path d="M17.51,19.014 C17.476,19.15 17.43,19.354 17.408,19.452 C17.385,19.355 17.338,19.155 17.305,19.024 L16.846,17.326 L16.843,17.313 L16.564,17.313 L16.103,19.028 C16.067,19.158 16.02,19.355 15.997,19.451 C15.975,19.353 15.929,19.15 15.893,19.014 L15.459,17.326 L15.456,17.313 L15.179,17.313 L15.85,19.839 L15.854,19.851 L16.128,19.851 L16.622,18.014 C16.651,17.903 16.685,17.75 16.704,17.667 C16.722,17.751 16.757,17.905 16.788,18.014 L17.265,19.838 L17.268,19.851 L17.532,19.851 L18.215,17.335 L18.221,17.313 L17.951,17.313 L17.51,19.014 Z" id="Stroke-17" stroke="#FFFFFF" stroke-width="0.2"></path>
            <path d="M20.222,17.261 C19.527,17.261 19.042,17.804 19.042,18.58 C19.042,19.358 19.527,19.9 20.222,19.9 C20.921,19.9 21.408,19.358 21.408,18.58 C21.408,17.804 20.921,17.261 20.222,17.261 M21.13,18.58 C21.13,19.234 20.773,19.656 20.222,19.656 C19.675,19.656 19.322,19.234 19.322,18.58 C19.322,17.927 19.675,17.505 20.222,17.505 C20.773,17.505 21.13,17.927 21.13,18.58" id="Fill-19" fill="#FFFFFF"></path>
            <path d="M20.222,17.261 C19.527,17.261 19.042,17.804 19.042,18.58 C19.042,19.358 19.527,19.9 20.222,19.9 C20.921,19.9 21.408,19.358 21.408,18.58 C21.408,17.804 20.921,17.261 20.222,17.261 M21.13,18.58 C21.13,19.234 20.773,19.656 20.222,19.656 C19.675,19.656 19.322,19.234 19.322,18.58 C19.322,17.927 19.675,17.505 20.222,17.505 C20.773,17.505 21.13,17.927 21.13,18.58" id="Stroke-20" stroke="#FFFFFF" stroke-width="0.2"></path>
            <path d="M24.287,19.283 C24.268,18.885 24.178,18.704 23.945,18.614 C24.215,18.517 24.346,18.318 24.346,18.006 C24.346,17.573 24.074,17.313 23.618,17.313 L22.484,17.313 L22.484,19.851 L22.753,19.851 L22.753,18.734 L23.499,18.734 C23.872,18.734 23.998,18.865 24.018,19.275 C24.04,19.72 24.055,19.805 24.116,19.848 L24.121,19.851 L24.395,19.851 L24.395,19.811 L24.388,19.806 C24.332,19.768 24.3,19.602 24.287,19.283 M22.753,17.554 L23.569,17.554 C23.916,17.554 24.07,17.7 24.07,18.027 C24.07,18.337 23.887,18.5 23.538,18.5 L22.753,18.5 L22.753,17.554" id="Fill-22" fill="#FFFFFF"></path>
            <path d="M24.287,19.283 C24.268,18.885 24.178,18.704 23.945,18.614 C24.215,18.517 24.346,18.318 24.346,18.006 C24.346,17.573 24.074,17.313 23.618,17.313 L22.484,17.313 L22.484,19.851 L22.753,19.851 L22.753,18.734 L23.499,18.734 C23.872,18.734 23.998,18.865 24.018,19.275 C24.04,19.72 24.055,19.805 24.116,19.848 L24.121,19.851 L24.395,19.851 L24.395,19.811 L24.388,19.806 C24.332,19.768 24.3,19.602 24.287,19.283 Z M22.753,17.554 L23.569,17.554 C23.916,17.554 24.07,17.7 24.07,18.027 C24.07,18.337 23.887,18.5 23.538,18.5 L22.753,18.5 L22.753,17.554 Z" id="Stroke-23" stroke="#FFFFFF" stroke-width="0.2"></path>
            <polyline id="Fill-25" fill="#FFFFFF" points="27.008 17.313 25.68 18.624 25.68 17.313 25.411 17.313 25.411 19.851 25.68 19.851 25.68 18.959 26.109 18.536 27.089 19.844 27.094 19.851 27.416 19.851 26.295 18.351 27.331 17.343 27.36 17.313 27.008 17.313"></polyline>
            <polygon id="Stroke-26" stroke="#FFFFFF" stroke-width="0.2" points="27.008 17.313 25.68 18.624 25.68 17.313 25.411 17.313 25.411 19.851 25.68 19.851 25.68 18.959 26.109 18.536 27.089 19.844 27.094 19.851 27.416 19.851 26.295 18.351 27.331 17.343 27.36 17.313"></polygon>
            <path d="M29.122,18.392 C28.671,18.308 28.456,18.218 28.456,17.936 C28.456,17.663 28.684,17.494 29.052,17.494 C29.416,17.494 29.647,17.684 29.687,18.015 L29.688,18.03 L29.95,18.03 L29.948,18.012 C29.897,17.536 29.57,17.264 29.049,17.264 C28.538,17.264 28.194,17.537 28.194,17.943 C28.194,18.26 28.331,18.497 28.996,18.628 C29.522,18.735 29.753,18.818 29.753,19.158 C29.753,19.467 29.508,19.667 29.129,19.667 C28.668,19.667 28.389,19.431 28.365,19.021 L28.364,19.005 L28.096,19.005 L28.097,19.022 C28.128,19.57 28.513,19.896 29.126,19.896 C29.664,19.896 30.025,19.595 30.025,19.148 C30.025,18.612 29.616,18.488 29.122,18.392" id="Fill-28" fill="#FFFFFF"></path>
            <path d="M29.122,18.392 C28.671,18.308 28.456,18.218 28.456,17.936 C28.456,17.663 28.684,17.494 29.052,17.494 C29.416,17.494 29.647,17.684 29.687,18.015 L29.688,18.03 L29.95,18.03 L29.948,18.012 C29.897,17.536 29.57,17.264 29.049,17.264 C28.538,17.264 28.194,17.537 28.194,17.943 C28.194,18.26 28.331,18.497 28.996,18.628 C29.522,18.735 29.753,18.818 29.753,19.158 C29.753,19.467 29.508,19.667 29.129,19.667 C28.668,19.667 28.389,19.431 28.365,19.021 L28.364,19.005 L28.096,19.005 L28.097,19.022 C28.128,19.57 28.513,19.896 29.126,19.896 C29.664,19.896 30.025,19.595 30.025,19.148 C30.025,18.612 29.616,18.488 29.122,18.392" id="Stroke-29" stroke="#FFFFFF" stroke-width="0.2"></path>
            <path d="M30.959,17.27 L31.081,17.27 L31.176,17.604 L31.178,17.604 L31.273,17.27 L31.397,17.27 L31.397,17.708 L31.318,17.708 L31.318,17.373 L31.315,17.373 C31.315,17.373 31.297,17.442 31.28,17.497 L31.217,17.708 L31.136,17.708 L31.073,17.497 C31.059,17.446 31.04,17.373 31.04,17.373 L31.037,17.373 L31.037,17.708 L30.959,17.708 L30.959,17.27 Z M30.525,17.27 L30.887,17.27 L30.887,17.342 L30.749,17.342 L30.749,17.708 L30.663,17.708 L30.663,17.342 L30.525,17.342 L30.525,17.27 Z" id="Fill-31" fill="#FFFFFF"></path>
        </g>
    </g>
</svg>